<?xml version="1.0" standalone="no"?>
<!DOCTYPE svg PUBLIC "-//W3C//DTD SVG 20010904//EN"
 "http://www.w3.org/TR/2001/REC-SVG-20010904/DTD/svg10.dtd">
<svg version="1.0" xmlns="http://www.w3.org/2000/svg"
 width="442.000000pt" height="370.000000pt" viewBox="0 0 442.000000 370.000000"
 preserveAspectRatio="xMidYMid meet">
<metadata>
Created by potrace 1.16, written by Peter Selinger 2001-2019
</metadata>
<g transform="translate(0.000000,370.000000) scale(0.100000,-0.100000)"
fill="#000000" stroke="none">
<path d="M522 2777 c-12 -13 -22 -27 -22 -33 0 -5 -12 -20 -25 -33 -14 -12
-22 -28 -18 -34 4 -6 11 -3 20 8 7 11 13 14 13 9 0 -16 -21 -33 -34 -28 -13 5
-69 -103 -61 -117 4 -5 2 -9 -4 -9 -16 0 -34 -140 -28 -220 15 -189 134 -379
306 -488 l63 -40 -1 -131 c-2 -155 4 -164 72 -108 59 49 146 132 122 116 -20
-14 -20 -13 -1 9 20 23 32 30 21 12 -11 -17 11 -11 29 9 14 15 24 17 59 10 23
-4 173 -8 333 -9 l290 0 -35 -72 c-35 -69 -36 -76 -36 -183 0 -105 2 -114 33
-178 58 -117 154 -199 301 -256 l66 -26 500 -2 500 -3 78 -66 c46 -38 84 -63
93 -60 11 4 14 27 14 98 l0 93 67 50 c128 96 189 220 181 373 -5 117 -43 199
-130 286 -106 106 -236 156 -403 156 -47 0 -85 4 -85 8 0 5 11 19 25 32 14 13
25 29 25 37 0 7 4 13 9 13 15 0 83 119 75 131 -4 8 -3 9 4 5 16 -10 15 7 0 23
-11 10 -9 11 7 5 11 -4 17 -4 13 1 -4 4 -1 20 7 36 18 35 19 53 3 42 -8 -4 -7
2 2 17 22 34 24 127 6 170 -8 19 -15 29 -16 23 0 -16 -160 -19 -160 -3 0 6
-18 10 -40 10 -22 0 -40 5 -40 10 0 6 -33 10 -80 10 -47 0 -80 4 -80 10 0 6
-18 10 -40 10 -22 0 -40 5 -40 10 0 6 -18 10 -40 10 -42 0 -80 26 -80 55 0 8
-9 15 -20 15 -26 0 -26 -20 0 -48 l21 -22 -36 0 c-24 0 -35 5 -35 14 0 20 -19
31 -32 18 -6 -6 -18 -8 -27 -5 -13 4 -14 3 -1 -5 8 -6 19 -8 25 -6 5 3 2 -1
-8 -9 -10 -8 -32 -14 -50 -13 -27 2 -32 6 -29 25 2 22 0 23 -45 17 -27 -3 -42
-3 -36 0 19 9 16 37 -3 30 -9 -3 -20 -6 -25 -6 -6 0 -7 -4 -4 -10 4 -6 -7 -10
-24 -10 -17 0 -31 5 -31 10 0 6 -33 10 -80 10 -44 0 -80 4 -80 8 0 7 -254 42
-302 42 -9 0 -18 -8 -20 -17 -3 -15 -9 -12 -33 15 -25 28 -36 32 -77 32 -27 0
-48 5 -48 10 0 6 -26 10 -57 10 -75 0 -263 22 -263 30 0 4 -54 13 -120 20 -66
7 -120 17 -120 21 0 5 -47 9 -105 9 -103 0 -169 15 -143 32 7 4 8 8 2 8 -6 0
-20 -10 -32 -23z m562 -289 c-5 -8 -2 -9 12 -3 34 15 111 17 135 4 13 -7 31
-12 39 -11 11 1 11 0 2 -4 -10 -5 -10 -10 4 -25 15 -17 27 -112 13 -103 -3 2
-12 -8 -19 -21 -23 -43 -114 -59 -170 -30 -32 17 -60 61 -60 95 0 12 7 34 15
50 9 17 13 30 9 30 -4 0 -1 7 6 15 15 18 24 20 14 3z m474 1 c-2 -6 3 -14 11
-17 8 -2 11 0 7 6 -3 6 -1 14 5 18 8 5 9 3 4 -6 -6 -10 -4 -11 11 -4 26 12
155 14 148 2 -3 -5 1 -8 9 -6 9 2 16 0 17 -4 0 -4 9 -26 19 -49 19 -41 19 -43
0 -76 -22 -39 -24 -47 -6 -37 8 5 8 2 -2 -9 -15 -18 -26 -23 -16 -7 3 6 1 10
-5 10 -6 0 -13 -6 -16 -14 -4 -11 -22 -14 -69 -13 -52 2 -68 6 -89 26 -22 21
-28 22 -42 10 -16 -13 -16 -12 -3 9 10 17 11 26 3 40 -9 14 -8 26 6 55 10 20
14 34 8 31 -6 -4 -8 -2 -4 4 3 6 2 13 -4 17 -6 4 -8 11 -5 16 8 13 16 11 13
-2z m517 1 c4 -7 11 -7 18 -2 16 11 80 15 137 7 37 -5 49 -12 64 -38 31 -52
23 -121 -18 -150 -45 -32 -99 -38 -151 -16 -16 7 -33 12 -37 11 -5 -1 -8 5 -8
13 0 8 -5 15 -11 15 -5 0 -8 4 -5 9 3 5 -4 22 -16 37 -15 19 -16 24 -5 15 10
-8 17 -9 17 -3 0 6 -5 14 -12 18 -8 5 -7 10 3 18 20 16 67 73 49 59 -11 -9
-20 -8 -34 3 -11 8 -15 14 -9 14 7 0 15 -5 18 -10z"/>
</g>
</svg>
